Coordinates
version=1
nRows=13
nColumns=38
inDegrees=no

Units are S.I. units (second, meters, Newtons, ...)
If the header above contains a line with 'inDegrees', this indicates whether rotational values are in degrees (yes) or radians (no).

endheader
time	pelvis_tilt	pelvis_list	pelvis_rotation	pelvis_tx	pelvis_ty	pelvis_tz	hip_flexion_r	hip_adduction_r	hip_rotation_r	knee_angle_r	ankle_angle_r	subtalar_angle_r	mtp_angle_r	hip_flexion_l	hip_adduction_l	hip_rotation_l	knee_angle_l	ankle_angle_l	subtalar_angle_l	mtp_angle_l	lumbar_extension	lumbar_bending	lumbar_rotation	arm_flex_r	arm_add_r	arm_rot_r	elbow_flex_r	pro_sup_r	wrist_flex_r	wrist_dev_r	arm_flex_l	arm_add_l	arm_rot_l	elbow_flex_l	pro_sup_l	wrist_flex_l	wrist_dev_l
2.31	2.06028	1.38053	2.7077	0.861647	-0.631235	1.01613	0.720489	-0.163692	0.293561	1.24651	-0.180986	0	0	0.135163	0.132255	-0.450256	0.491278	-0.107819	0	0	-0.121618	-0.205734	0.193577	0.0737709	-0.495847	0.962667	0.674226	0.562231	0	0	0.210436	-0.423152	1.06967	0.649541	0.332542	0	0
2.32	2.06995	1.37883	2.70014	0.863946	-0.639447	1.0153	0.730382	-0.161796	0.297912	1.21757	-0.171229	0	0	0.127202	0.135808	-0.447124	0.488805	-0.104535	0	0	-0.120265	-0.205538	0.192663	0.0714693	-0.498197	0.959506	0.677912	0.561926	0	0	0.212373	-0.42345	1.07254	0.651536	0.331715	0	0
2.33	2.08094	1.37652	2.69043	0.866114	-0.647607	1.01428	0.740068	-0.159846	0.30298	1.18717	-0.161042	0	0	0.119956	0.139533	-0.4447	0.486626	-0.100744	0	0	-0.118314	-0.205887	0.192573	0.0689342	-0.500379	0.955804	0.68164	0.56127	0	0	0.214152	-0.423618	1.0748	0.653145	0.331342	0	0
2.34	2.09332	1.37381	2.67869	0.868211	-0.655766	1.01315	0.749735	-0.157837	0.308586	1.15546	-0.151057	0	0	0.113332	0.143342	-0.443031	0.484732	-0.0958007	0	0	-0.117291	-0.206493	0.188829	0.0702272	-0.502382	0.955408	0.685311	0.564401	0	0	0.207436	-0.423962	1.05304	0.657045	0.352485	0	0
2.35	2.11197	1.37095	2.66267	0.870437	-0.664168	1.01184	0.760717	-0.156922	0.31156	1.12523	-0.144935	0	0	0.108411	0.146024	-0.441203	0.484937	-0.0925138	0	0	-0.112535	-0.206455	0.188535	0.0665989	-0.504302	0.952242	0.688635	0.564052	0	0	0.20959	-0.424154	1.0593	0.657551	0.348407	0	0
2.36	2.13248	1.36752	2.64454	0.872569	-0.672659	1.01038	0.771172	-0.155771	0.313727	1.094	-0.138011	0	0	0.104427	0.148662	-0.439871	0.485493	-0.0889172	0	0	-0.106801	-0.206692	0.188213	0.0625698	-0.505831	0.948217	0.692027	0.564235	0	0	0.210431	-0.424618	1.06267	0.658592	0.346512	0	0
2.37	2.15434	1.36418	2.6246	0.874449	-0.681302	1.00883	0.782266	-0.153748	0.315487	1.06355	-0.130462	0	0	0.101181	0.149909	-0.440095	0.48745	-0.0849975	0	0	-0.100596	-0.206718	0.188386	0.0580781	-0.506966	0.943287	0.695406	0.564957	0	0	0.210656	-0.42525	1.0646	0.659604	0.345188	0	0
2.38	1.68256	1.2725	2.9723	0.857982	-0.679055	1.00009	0.816066	-0.158131	0.499342	1.14683	-0.10442	0	0	0.0068945	0.273487	-0.588008	0.452751	-0.0975573	0	0	-0.1349	-0.355805	0.381823	-0.00917049	-0.564329	0.864088	0.815449	0.49053	0	0	0.41463	-0.465197	1.46114	0.74061	0.0854785	0	0
2.39	1.69538	1.26897	2.9572	0.859512	-0.687459	0.998235	0.826524	-0.153968	0.504186	1.11948	-0.0912118	0	0	0.00204208	0.277646	-0.593781	0.453131	-0.0960322	0	0	-0.129069	-0.358117	0.386441	-0.0135417	-0.566694	0.860144	0.820465	0.489519	0	0	0.416979	-0.465047	1.46645	0.741786	0.0809469	0	0
2.4	2.22083	1.3515	2.56168	0.880806	-0.708073	1.00337	0.813879	-0.152266	0.314628	0.974007	-0.0869357	0	0	0.0867512	0.152038	-0.460262	0.486013	-0.0755265	0	0	-0.0792208	-0.206566	0.18905	0.0402483	-0.511707	0.920392	0.707429	0.576208	0	0	0.202145	-0.423053	1.05272	0.660275	0.356515	0	0
2.41	2.23024	1.34676	2.55222	0.882603	-0.716946	1.00166	0.822422	-0.152555	0.314803	0.949191	-0.067793	0	0	0.081633	0.15521	-0.465077	0.487618	-0.0723801	0	0	-0.0746085	-0.208289	0.189132	0.0371545	-0.513479	0.918294	0.711143	0.575818	0	0	0.199082	-0.422877	1.04756	0.660911	0.360518	0	0
2.42	2.23717	1.34262	2.54469	0.884176	-0.725901	0.99994	0.830691	-0.152205	0.315645	0.927361	-0.0505242	0	0	0.0756098	0.157885	-0.470493	0.489148	-0.0695442	0	0	-0.0706265	-0.209813	0.189371	0.0348399	-0.51546	0.917988	0.715163	0.576147	0	0	0.1957	-0.423064	1.04201	0.661887	0.363535	0	0
2.43	2.24415	1.33826	2.53736	0.885689	-0.734917	0.998151	0.838187	-0.151922	0.316369	0.90709	-0.0352299	0	0	0.0695866	0.161405	-0.472957	0.489433	-0.0683519	0	0	-0.0651808	-0.211956	0.202605	0.0152485	-0.516778	0.888167	0.722036	0.590065	0	0	0.212615	-0.421412	1.08604	0.657031	0.329758	0	0
